<svg xmlns="http://www.w3.org/2000/svg" xmlns:xlink="http://www.w3.org/1999/xlink" viewBox="0 0 504.65 104.59"><defs><style>.cls-1{fill:url(#Degradado_sin_nombre_8);}.cls-2{fill:#fff;}</style><linearGradient id="Degradado_sin_nombre_8" x1="65.36" x2="65.36" y2="104.59" gradientUnits="userSpaceOnUse"><stop offset="0" stop-color="#df7aea"/><stop offset="1" stop-color="#832a93"/></linearGradient></defs><g id="Capa_2" data-name="Capa 2"><g id="Capa_1-2" data-name="Capa 1"><path class="cls-1" d="M130.73,32.69V45.75a6.54,6.54,0,0,1-6.55,6.54H111.13a6.55,6.55,0,0,0-6.55,6.55V71.9A6.54,6.54,0,0,1,98,78.44H85A6.54,6.54,0,0,0,78.44,85V98a6.55,6.55,0,0,1-6.55,6.55h-13A6.55,6.55,0,0,1,52.29,98V85a6.55,6.55,0,0,1,6.55-6.55h13a6.54,6.54,0,0,0,6.55-6.54V58.84A6.54,6.54,0,0,1,85,52.29H98a6.54,6.54,0,0,0,6.54-6.54V32.69A6.54,6.54,0,0,0,98,26.15H85a6.54,6.54,0,0,0-6.54,6.54V45.75a6.54,6.54,0,0,1-6.55,6.54h-13a6.55,6.55,0,0,0-6.55,6.55V71.9a6.54,6.54,0,0,1-6.54,6.54H32.69a6.54,6.54,0,0,1-6.55-6.54V58.84a6.54,6.54,0,0,0-6.54-6.55h-13A6.54,6.54,0,0,1,0,45.75V32.69a6.54,6.54,0,0,1,6.55-6.54H19.6a6.54,6.54,0,0,0,6.54-6.55v-13A6.55,6.55,0,0,1,32.69,0H45.75a6.54,6.54,0,0,1,6.54,6.55V19.6a6.54,6.54,0,0,1-6.54,6.55H32.69a6.54,6.54,0,0,0-6.55,6.54V45.75a6.54,6.54,0,0,0,6.55,6.54H45.75a6.54,6.54,0,0,0,6.54-6.54V32.69a6.54,6.54,0,0,1,6.55-6.54h13a6.55,6.55,0,0,0,6.55-6.55v-13A6.54,6.54,0,0,1,85,0H98a6.54,6.54,0,0,1,6.54,6.55V19.6a6.55,6.55,0,0,0,6.55,6.55h13.05A6.54,6.54,0,0,1,130.73,32.69Z"/><path class="cls-2" d="M178.59,78.3a27.51,27.51,0,0,1-11-2.12,25.37,25.37,0,0,1-8.53-5.93,27.29,27.29,0,0,1-7.48-18.82,27.68,27.68,0,0,1,3.29-13.38,24.77,24.77,0,0,1,9.43-9.68,27.6,27.6,0,0,1,14.3-3.61A26.62,26.62,0,0,1,192.5,28.3a22.28,22.28,0,0,1,8.83,9.42L190.56,41a13.17,13.17,0,0,0-5-5,14.05,14.05,0,0,0-7.17-1.85,14.69,14.69,0,0,0-7.93,2.21,15.62,15.62,0,0,0-5.59,6.1,19.07,19.07,0,0,0-2,9,18.8,18.8,0,0,0,2.09,9,16.48,16.48,0,0,0,5.69,6.24A14.6,14.6,0,0,0,183.68,68a14.61,14.61,0,0,0,4.44-2.64,10,10,0,0,0,2.74-3.59L201.53,65a20.2,20.2,0,0,1-5,6.78,24.33,24.33,0,0,1-7.88,4.74A28.13,28.13,0,0,1,178.59,78.3Z"/><path class="cls-2" d="M233.64,78.3a27.39,27.39,0,0,1-11.07-2.12,25.4,25.4,0,0,1-8.43-5.88,26.53,26.53,0,0,1-5.43-8.54,27.18,27.18,0,0,1-1.9-10.13,27.64,27.64,0,0,1,1.9-10.32,26.47,26.47,0,0,1,5.43-8.55,25.3,25.3,0,0,1,8.48-5.88,27.69,27.69,0,0,1,11-2.12,27.2,27.2,0,0,1,11,2.12,26.25,26.25,0,0,1,13.91,14.43,27.84,27.84,0,0,1,1.9,10.32,27.38,27.38,0,0,1-1.9,10.13,26.53,26.53,0,0,1-5.43,8.54,25.3,25.3,0,0,1-8.48,5.88A27.51,27.51,0,0,1,233.64,78.3ZM218.08,51.53a18.82,18.82,0,0,0,2.09,8.95,16.43,16.43,0,0,0,5.59,6.19,14,14,0,0,0,7.78,2.26,14.31,14.31,0,0,0,8-2.26,16.23,16.23,0,0,0,5.59-6.29,19.87,19.87,0,0,0,0-17.74,16.2,16.2,0,0,0-5.64-6.25,14.3,14.3,0,0,0-7.82-2.26,13.75,13.75,0,0,0-7.88,2.36,17.29,17.29,0,0,0-5.59,6.29A18.39,18.39,0,0,0,218.08,51.53Z"/><path class="cls-2" d="M299.44,34.63a23.19,23.19,0,0,0-11.21,2.89,15.71,15.71,0,0,0-7,7.88V77.31h-11V25.56H280.3V36.72a24.72,24.72,0,0,1,7.18-8.52,17.07,17.07,0,0,1,9.17-3.54h1.75a4.19,4.19,0,0,1,1,.1Z"/><path class="cls-2" d="M328.56,78.3a27.63,27.63,0,0,1-11.07-2.12,26.34,26.34,0,0,1-14-14.36,26.83,26.83,0,0,1-1.94-10.14,27.4,27.4,0,0,1,3.39-13.51,25.7,25.7,0,0,1,9.52-9.76,27.09,27.09,0,0,1,14.11-3.65,26.29,26.29,0,0,1,14.21,3.7A26,26,0,0,1,352,38.19a26.45,26.45,0,0,1,3.29,12.93,22.11,22.11,0,0,1-.1,2.22c-.06.7-.13,1.24-.2,1.63H313.1a18.1,18.1,0,0,0,2.7,8,15.57,15.57,0,0,0,5.68,5.32,15.11,15.11,0,0,0,7.38,1.92,17,17,0,0,0,8.43-2.2,11.33,11.33,0,0,0,5.33-5.78L352,64.94a19.72,19.72,0,0,1-5.18,6.83,26.35,26.35,0,0,1-8.13,4.79A28.56,28.56,0,0,1,328.56,78.3ZM312.91,47.79h31.5A16.88,16.88,0,0,0,341.87,40,16,16,0,0,0,321,34.74,15.94,15.94,0,0,0,315.4,40,15.77,15.77,0,0,0,312.91,47.79Z"/><path class="cls-2" d="M382.8,78.3a35.39,35.39,0,0,1-12.46-2.19,27.05,27.05,0,0,1-10.07-6.48l4-7.28a34,34,0,0,0,9.12,5.73,23.79,23.79,0,0,0,9,1.85,14.48,14.48,0,0,0,7.53-1.71,5.51,5.51,0,0,0,2.84-5,4.33,4.33,0,0,0-1.54-3.66,14.17,14.17,0,0,0-4.39-2.07c-1.89-.59-4.14-1.25-6.73-2a69.84,69.84,0,0,1-9.32-3.5,14.51,14.51,0,0,1-5.74-4.5,11.52,11.52,0,0,1-1.89-6.82,14,14,0,0,1,2.59-8.49A16.53,16.53,0,0,1,373,26.69a27.64,27.64,0,0,1,10.72-1.93,30.88,30.88,0,0,1,10.52,1.74,23,23,0,0,1,8.52,5.44l-4.68,7.18A23.93,23.93,0,0,0,391,34.53,20.74,20.74,0,0,0,383.1,33a19.38,19.38,0,0,0-4.54.55,8,8,0,0,0-3.73,2,5.25,5.25,0,0,0-1.5,4A4.55,4.55,0,0,0,374.58,43a10.1,10.1,0,0,0,3.64,2.12q2.38.88,5.88,2a91.58,91.58,0,0,1,10.37,3.45A17.36,17.36,0,0,1,401.1,55a11,11,0,0,1,2.34,7.45,13.76,13.76,0,0,1-5.63,11.63Q392.17,78.31,382.8,78.3Z"/><path class="cls-2" d="M413.91,89.57q1.5.2,2.94.45a8.47,8.47,0,0,0,2.35.15,4.15,4.15,0,0,0,2.94-.89,10.55,10.55,0,0,0,2.54-3.81c.86-1.87,1.9-4.56,3.09-8L406.43,25.56H417.9l16,40.76L448,25.56h10.67L435,89.43a15.05,15.05,0,0,1-3.14,5.35,15.41,15.41,0,0,1-5.28,3.77,16.62,16.62,0,0,1-7.23,1.29,10.62,10.62,0,0,1-2.5-.1c-.86-.13-1.83-.33-2.89-.6Z"/><path class="cls-2" d="M484,78.3a35.39,35.39,0,0,1-12.46-2.19,27,27,0,0,1-10.07-6.48l4-7.28a34.22,34.22,0,0,0,9.13,5.73,23.79,23.79,0,0,0,9,1.85,14.5,14.5,0,0,0,7.53-1.71,5.53,5.53,0,0,0,2.84-5,4.33,4.33,0,0,0-1.54-3.66,14.39,14.39,0,0,0-4.39-2.07q-2.85-.89-6.73-2A70,70,0,0,1,472,52a14.47,14.47,0,0,1-5.73-4.5,11.52,11.52,0,0,1-1.89-6.82A14,14,0,0,1,467,32.17a16.53,16.53,0,0,1,7.23-5.48,27.64,27.64,0,0,1,10.72-1.93,30.88,30.88,0,0,1,10.52,1.74A23,23,0,0,1,504,31.94l-4.68,7.18a23.93,23.93,0,0,0-7.08-4.59,20.74,20.74,0,0,0-7.88-1.5,19.38,19.38,0,0,0-4.54.55,8.07,8.07,0,0,0-3.74,2,5.29,5.29,0,0,0-1.49,4A4.58,4.58,0,0,0,475.78,43a10.19,10.19,0,0,0,3.64,2.12q2.4.88,5.89,2a91.58,91.58,0,0,1,10.37,3.45A17.52,17.52,0,0,1,502.31,55a11,11,0,0,1,2.34,7.45A13.76,13.76,0,0,1,499,74.06Q493.38,78.31,484,78.3Z"/></g></g></svg>