<svg xmlns="http://www.w3.org/2000/svg" xmlns:xlink="http://www.w3.org/1999/xlink" viewBox="0 0 209.87 209.87"><defs><style>.cls-1{fill:none;}.cls-2{fill:url(#Degradado_sin_nombre_8);}</style><linearGradient id="Degradado_sin_nombre_8" y1="104.93" x2="209.87" y2="104.93" gradientUnits="userSpaceOnUse"><stop offset="0" stop-color="#df7aea"/><stop offset="1" stop-color="#832a93"/></linearGradient></defs><g id="Capa_2" data-name="Capa 2"><g id="Capa_1-2" data-name="Capa 1"><rect class="cls-1" width="209.87" height="209.87"/><path class="cls-2" d="M209.87,73.47v21a10.51,10.51,0,0,1-10.51,10.51h-21a10.52,10.52,0,0,0-10.51,10.51v21a10.51,10.51,0,0,1-10.51,10.51H136.43a10.5,10.5,0,0,0-10.51,10.51v21a10.51,10.51,0,0,1-10.51,10.51h-21A10.5,10.5,0,0,1,84,178.37v-21a10.5,10.5,0,0,1,10.51-10.51h21a10.51,10.51,0,0,0,10.51-10.51v-21a10.51,10.51,0,0,1,10.51-10.51h20.95a10.51,10.51,0,0,0,10.51-10.51v-21A10.52,10.52,0,0,0,157.38,63H136.43a10.51,10.51,0,0,0-10.51,10.51v21a10.51,10.51,0,0,1-10.51,10.51h-21A10.51,10.51,0,0,0,84,115.44v21a10.51,10.51,0,0,1-10.51,10.51h-21A10.5,10.5,0,0,1,42,136.4v-21a10.51,10.51,0,0,0-10.51-10.51h-21A10.5,10.5,0,0,1,0,94.42v-21A10.51,10.51,0,0,1,10.51,63h21A10.5,10.5,0,0,0,42,52.45v-21A10.5,10.5,0,0,1,52.48,21h21A10.51,10.51,0,0,1,84,31.49v21A10.51,10.51,0,0,1,73.44,63h-21A10.51,10.51,0,0,0,42,73.47v21a10.5,10.5,0,0,0,10.51,10.51h21A10.51,10.51,0,0,0,84,94.42v-21A10.51,10.51,0,0,1,94.46,63h21a10.51,10.51,0,0,0,10.51-10.51v-21A10.5,10.5,0,0,1,136.43,21h20.95a10.51,10.51,0,0,1,10.51,10.5v21A10.51,10.51,0,0,0,178.4,63h21A10.52,10.52,0,0,1,209.87,73.47Z"/></g></g></svg>